<svg xmlns="http://www.w3.org/2000/svg" viewBox="0 0 82 101.38" width="current" height="current">
  <defs>
    <style>
      .cls-1{fill:blue;}.cls-2{fill:#fff;}.cls-3{fill:current;}
    </style>
  </defs>
  <g id="Layer_2" data-name="Layer 2">
    <g id="Layer_1-2" data-name="Layer 1">
      <path class="cls-3" d="M82,17.16v84.22H19.5v-85H81.23A.78.78,0,0,1,82,17.16Z"/>
      <path class="cls-3" d="M16,91.77v9.61H8c-4,0-8-4.3-8-9.61V11C0,5.68,3.58,1.38,8,1.38s8,4.3,8,9.61V91.77Z"/>
      <path class="cls-2" d="M10.39,16.22a7.93,7.93,0,0,0,1,.06H80.5v-.44c-5-.35-6.88-3.28-6.88-6.84s1.9-6.48,6.88-6.83V1.5H9.83a3.5,3.5,0,0,0-2.33.88h0c-3,2-3.88,3.49-3.88,6.69a7.35,7.35,0,0,0,.73,3.18A7.32,7.32,0,0,0,10,16.17Z"/>
      <path class="cls-3" d="M80.5,17.78H11.37a9.23,9.23,0,0,1-1.18-.08l-.36,0A8.74,8.74,0,0,1,3,12.9a8.74,8.74,0,0,1-.88-3.83c0-3.69,1.09-5.62,4.47-7.89A5,5,0,0,1,9.83,0H80.5A1.5,1.5,0,0,1,82,1.5v.67a1.5,1.5,0,0,1-1.39,1.49C77,3.92,75.12,5.72,75.12,9s1.84,5.09,5.49,5.35A1.5,1.5,0,0,1,82,15.84v.44A1.5,1.5,0,0,1,80.5,17.78ZM9.83,3a2,2,0,0,0-1.34.51l-.16.12C5.72,5.37,5.12,6.38,5.12,9.07A5.79,5.79,0,0,0,5.7,11.6a5.81,5.81,0,0,0,4.52,3.08l.36.05h0a6.84,6.84,0,0,0,.79,0H74.24A8.1,8.1,0,0,1,72.12,9a8,8,0,0,1,2.35-6Z"/>
      <rect class="cls-2" x="15" y="12.38" width="6" height="89"/>
    </g>
  </g>
</svg>
