<svg xmlns="http://www.w3.org/2000/svg" viewBox="0 0 150 200">
  <defs>
    <style>
      .cls-1{fill:#ededed;}.cls-2{fill:none;}.cls-3,.cls-4{fill:#929292;}.cls-4{stroke:#929292;stroke-miterlimit:10;}
    </style>
  </defs>
  <g id="Layer_2" data-name="Layer 2">
    <g id="Layer_1-2" data-name="Layer 1">
      <rect class="cls-1" width="150" height="200"/>
      <path class="cls-2" d="M58.84,94.43l10.85,11.48,17.85-23a2,2,0,0,1,3.12,0L106.23,103V68.28h-63v39.16l12.28-13A2.37,2.37,0,0,1,58.84,94.43Z"/>
      <path class="cls-3" d="M107.77,64.43H41.66a2.32,2.32,0,0,0-2.31,2.31v46.79h0a2,2,0,0,0,2,2h66.56a2.14,2.14,0,0,0,2.13-2.14h0V66.73A2.3,2.3,0,0,0,107.77,64.43ZM106,102.73,90.74,83a2.07,2.07,0,0,0-3.28,0L71,104.23a1.82,1.82,0,0,1-2.76.14l-9.31-9.86a2.43,2.43,0,0,0-3.51,0l-12,12.74a.1.1,0,0,1-.17-.07V71.35a3.06,3.06,0,0,1,3.07-3.07h56.88a3.07,3.07,0,0,1,3.08,3.07v31.32A.11.11,0,0,1,106,102.73Z"/>
      <circle class="cls-3" cx="57.03" cy="80.19" r="4.23"/>
      <path class="cls-4" d="M34.94,127.79h.78l8,10.71V127.79h.62v11.53h-.78l-8-10.72v10.72h-.62Z"/>
      <path class="cls-4" d="M46.72,133.55a6,6,0,1,1,6,6A5.79,5.79,0,0,1,46.72,133.55Zm11.28,0A5.33,5.33,0,1,0,52.68,139,5.21,5.21,0,0,0,58,133.55Z"/>
      <path class="cls-4" d="M65.71,127.79v11.53h-.63V127.79Z"/>
      <path class="cls-4" d="M68.54,127.79h.71l4.85,8.93L79,127.79h.7v11.53H79V128.91l-4.57,8.42h-.71l-4.57-8.42v10.41h-.63Z"/>
      <path class="cls-4" d="M90.05,136H83.63l-1.44,3.36h-.68l4.95-11.53h.74l5,11.53h-.67Zm-.26-.58-3-6.91-3,6.91Z"/>
      <path class="cls-4" d="M104.53,131.51h-.62a5,5,0,0,0-5-3.42,5.46,5.46,0,0,0,0,10.92,4.87,4.87,0,0,0,5.13-4.81H98.56v-.57h6.15V134a5.52,5.52,0,0,1-5.83,5.56,6,6,0,0,1,0-12A5.56,5.56,0,0,1,104.53,131.51Z"/>
      <path class="cls-4" d="M107.07,127.79h7.86v.58h-7.24v4.77h6.73v.59h-6.73v5h7.37v.59h-8Z"/>
    </g>
  </g>
</svg>
